<?xml version="1.0" encoding="utf-8"?>
<!-- Generator: Adobe Illustrator 21.0.0, SVG Export Plug-In . SVG Version: 6.00 Build 0)  -->
<svg version="1.1" id="Layer_1" xmlns="http://www.w3.org/2000/svg" xmlns:xlink="http://www.w3.org/1999/xlink" x="0px" y="0px"
	 viewBox="0 0 551.832 207.404" enable-background="new 0 0 551.832 207.404" xml:space="preserve">
<g>
	<g>
		<polygon fill="#FF9F36" points="153.377,71.514 121.314,60.794 121.314,14.3 153.419,23.841 		"/>
		<polyline fill="#FF9F36" points="161.743,23.841 193.861,14.3 193.744,60.758 161.743,71.514 161.743,23.841 		"/>
		<polyline fill="#FF9F36" points="187.309,9.272 157.381,0 127.855,9.272 157.431,17.215 187.309,9.272 		"/>
		<polygon fill="#FF9F36" points="234.25,71.514 202.177,60.794 202.177,14.3 234.288,23.841 		"/>
		<polyline fill="#FF9F36" points="242.617,23.841 274.722,14.3 274.617,60.758 242.617,71.514 242.617,23.841 		"/>
		<polyline fill="#FF9F36" points="268.19,9.272 238.259,0 208.718,9.272 238.307,17.215 268.19,9.272 		"/>
		<polygon fill="#FF9F36" points="32.109,91.778 0,82.244 0,128.732 32.072,139.46 		"/>
		<polyline fill="#FF9F36" points="40.439,91.778 72.552,82.244 72.444,128.701 40.439,139.46 40.439,91.778 		"/>
		<polyline fill="#FF9F36" points="66.017,77.216 36.081,67.94 6.549,77.216 36.12,85.159 66.017,77.216 		"/>
		<polygon fill="#FF9F36" points="112.943,139.46 80.878,128.732 80.878,82.244 112.99,91.778 		"/>
		<polyline fill="#FF9F36" points="121.314,91.778 153.419,82.244 153.312,128.701 121.314,139.46 121.314,91.778 		"/>
		<polyline fill="#FF9F36" points="146.878,77.216 116.952,67.94 87.415,77.216 117.001,85.159 146.878,77.216 		"/>
		<polygon fill="#FF9F36" points="72.509,207.404 40.439,196.679 40.439,150.192 72.552,159.727 		"/>
		<polyline fill="#FF9F36" points="80.878,159.727 112.99,150.192 112.878,196.645 80.878,207.404 80.878,159.727 		"/>
		<polyline fill="#FF9F36" points="106.443,145.155 76.521,135.885 46.98,145.155 76.563,153.095 106.443,145.155 		"/>
	</g>
	<g>
		<path fill="#010101" d="M214.544,166.308l-2.358,0.007c-0.872,0-1.98,0.587-2.244,1.537l-7.157,25.279l-7.085-25.226
			c-0.211-0.79-0.959-1.591-1.968-1.591h-2.795c-1.006,0-1.74,0.815-1.938,1.606l-6.586,24.963l-6.811-25.032
			c-0.27-0.915-1.392-1.537-2.286-1.537l-3.399-0.004c-0.723,0-1.389,0.316-1.752,0.811c-0.249,0.344-0.312,0.73-0.199,1.067
			l10.51,37.302c0.229,0.784,0.909,1.576,1.9,1.576h3.375c0.915,0,1.72-0.669,1.945-1.61l6.473-24.85l7.041,24.878
			c0.213,0.763,0.893,1.582,1.886,1.582h3.318c0.923,0,1.707-0.64,1.931-1.59l10.123-37.275c0.113-0.357,0.045-0.752-0.196-1.086
			C215.915,166.62,215.252,166.308,214.544,166.308z"/>
		<path fill="#010101" d="M235.052,166.043c-12.056,0-17.542,10.677-17.542,20.592c0,12.384,6.825,20.378,17.375,20.378
			c7.562,0,13.322-3.826,15.812-10.51c0.131-0.382,0.081-0.802-0.119-1.173c-0.248-0.443-0.736-0.788-1.303-0.915l-3.351-0.64
			c-0.889-0.144-1.92,0.393-2.257,1.163c-1.621,3.719-4.59,5.823-8.308,5.938c-3.572-0.118-6.854-2.244-8.357-5.429
			c-1.231-2.594-1.407-5.157-1.431-7.762l24.218-0.006c0.513,0,1.027-0.227,1.404-0.599c0.315-0.313,0.477-0.705,0.474-1.094
			C251.608,176.345,247.207,166.043,235.052,166.043z M243.73,182.148h-17.833c0.406-5.023,3.658-10.215,9.168-10.416
			C240.921,171.922,243.602,177.003,243.73,182.148z"/>
		<path fill="#010101" d="M274.228,165.699h-0.638c-3.997,0-7.14,1.665-9.551,5.077l-0.008-15.723c0-0.891-0.909-1.693-1.929-1.693
			h-3.467c-0.909,0-1.925,0.719-1.936,1.693v49.089c0.011,0.885,0.921,1.7,1.924,1.7l1.011-0.008c0.98,0,1.661-0.777,1.89-1.506
			l1.092-3.469c2.528,3.612,6.344,5.726,10.43,5.726h0.626c10.74,0,15.547-10.475,15.547-20.855c0-5.165-1.271-10.111-3.49-13.554
			C283.171,168.176,278.765,165.699,274.228,165.699z M281.455,186.696c0,2.283-0.399,13.69-8.495,13.979
			c-2.71-0.106-5.447-1.699-6.978-4.06c-1.115-1.789-1.781-4.252-1.942-7.306v-6.701c0.126-5.146,3.732-10.787,8.898-11.007
			C281.056,171.925,281.455,184.233,281.455,186.696z"/>
		<path fill="#010101" d="M327.352,185.588c-2.27-1.623-4.989-2.17-7.718-2.718l-5.229-0.97c-3.754-0.621-5.923-1.63-5.923-4.945
			c0-3.509,3.622-4.852,6.697-4.93c3.763,0.093,6.581,1.77,7.952,4.724c0.331,0.696,1.049,1.162,1.806,1.162
			c0.126,0,0.253-0.011,0.383-0.038l3.265-0.727c0.526-0.11,1.031-0.482,1.294-0.956c0.22-0.378,0.261-0.791,0.124-1.155
			c-1.987-5.828-7.064-8.916-14.729-8.916c-6.925,0.02-14.336,3.11-14.336,11.736c0,5.89,3.697,9.631,10.988,11.124l5.861,1.114
			c3.213,0.62,6.5,1.717,6.5,5.175c0,5.126-5.948,5.64-7.742,5.676c-4.034-0.09-8.598-1.886-9.708-5.7
			c-0.222-0.843-1.277-1.436-2.202-1.242l-3.419,0.706c-0.503,0.106-0.972,0.442-1.25,0.89c-0.229,0.378-0.296,0.807-0.191,1.191
			c1.766,6.332,7.862,10.155,16.323,10.216h0.182c7.557,0,15.625-3.238,15.625-12.335
			C331.906,190.969,330.239,187.659,327.352,185.588z"/>
		<path fill="#010101" d="M353.189,166.077c-12.058,0-17.547,10.678-17.547,20.592c0,12.379,6.826,20.378,17.384,20.378
			c7.559,0,13.305-3.826,15.809-10.513c0.138-0.378,0.09-0.799-0.118-1.17c-0.248-0.45-0.734-0.791-1.303-0.915l-3.339-0.641
			c-0.797-0.122-1.892,0.28-2.275,1.164c-1.62,3.715-4.582,5.819-8.297,5.936c-3.583-0.116-6.861-2.241-8.365-5.419
			c-1.221-2.602-1.401-5.16-1.42-7.768l24.21-0.006c0.503,0,1.028-0.229,1.402-0.599c0.3-0.317,0.476-0.706,0.473-1.101
			C369.744,176.376,365.354,166.077,353.189,166.077z M361.879,182.186h-17.851c0.408-5.022,3.666-10.234,9.171-10.412
			C359.043,171.952,361.732,177.037,361.879,182.186z"/>
		<path fill="#010101" d="M392.667,166.532c-0.479-0.053-0.933-0.084-1.363-0.084c-4.067,0-7.369,2.22-9.653,6.448l0.011-3.702
			c-0.006-0.899-0.906-1.686-1.918-1.686h-3.032c-0.987,0-1.859,0.792-1.862,1.699l-0.008,35.988c0,0.905,0.875,1.698,1.87,1.698
			h3.537c0.909,0,1.95-0.725,1.96-1.698l0.003-18.142c0-2.993,0.273-5.242,1.693-7.913c2.051-3.797,4.885-5.661,8.711-5.694
			c0.946-0.008,1.784-0.84,1.784-1.789v-3.365C394.399,167.411,393.64,166.641,392.667,166.532z"/>
		<path fill="#010101" d="M429.713,165.823h-2.782c-0.875,0-1.997,0.626-2.268,1.548l-9.031,28.461l-9.227-28.427
			c-0.266-0.949-1.388-1.583-2.269-1.583h-3.98c-0.731,0-1.437,0.323-1.792,0.832c-0.242,0.334-0.303,0.717-0.194,1.074
			l12.623,37.535c0.246,0.744,0.898,1.611,1.906,1.611h4.814c0.887,0,1.611-0.605,1.934-1.611l12.246-37.521
			c0.123-0.357,0.064-0.744-0.178-1.077C431.147,166.153,430.444,165.823,429.713,165.823z"/>
		<path fill="#010101" d="M438.869,151.399c-2.56,0-4.658,2.095-4.658,4.675c0,2.58,2.099,4.678,4.658,4.678
			c2.568,0,4.658-2.099,4.658-4.678C443.527,153.495,441.438,151.399,438.869,151.399z"/>
		<path fill="#010101" d="M440.789,165.596h-3.824c-1.031,0-1.985,0.839-1.985,1.76l-0.015,38.217c0,0.462,0.226,0.923,0.644,1.26
			c0.381,0.31,0.853,0.489,1.346,0.489l3.848,0.006h0.003c1.047-0.011,1.978-0.825,1.978-1.747v-38.225
			C442.783,166.421,441.848,165.596,440.789,165.596z"/>
		<path fill="#010101" d="M476.501,191.512l-3.194,0.008c-0.888,0-1.633,0.535-1.965,1.464c-1.167,5.043-3.809,7.654-7.811,7.771
			c-7.799-0.23-8.402-11.125-8.402-14.458c0-6.645,2.291-13.814,8.699-14.006c3.871,0.116,6.688,2.9,7.535,7.436
			c0.161,0.922,0.864,1.616,1.839,1.741l3.416,0.042c1.011-0.119,1.81-0.889,1.807-1.852c-1.202-8.193-6.868-13.485-14.444-13.485
			l-0.257,0.008l-0.291-0.008c-11.005,0-15.934,10.293-15.934,20.496c0,9.357,4.157,20.277,15.877,20.277h0.548
			c7.382,0,12.957-5.184,14.549-13.588c0.036-0.405-0.101-0.802-0.38-1.124C477.716,191.811,477.146,191.539,476.501,191.512z"/>
		<path fill="#010101" d="M499.321,166.077c-12.048,0-17.541,10.678-17.541,20.592c0,12.379,6.826,20.378,17.386,20.378
			c7.553,0,13.311-3.823,15.808-10.513c0.126-0.378,0.082-0.799-0.125-1.17c-0.257-0.454-0.727-0.784-1.292-0.915l-3.355-0.641
			c-0.787-0.122-1.87,0.28-2.259,1.164c-1.628,3.715-4.595,5.819-8.304,5.936c-3.577-0.116-6.865-2.241-8.361-5.419
			c-1.231-2.602-1.411-5.16-1.429-7.768l24.21-0.006c0.515,0,1.041-0.229,1.412-0.606c0.314-0.311,0.488-0.701,0.476-1.093
			C515.885,176.376,511.492,166.077,499.321,166.077z M508.011,182.186h-17.84c0.401-5.026,3.646-10.234,9.162-10.412
			C505.193,171.952,507.879,177.037,508.011,182.186z"/>
		<path fill="#010101" d="M546.289,185.588c-2.29-1.623-5.007-2.174-7.732-2.718l-5.227-0.97c-3.742-0.621-5.911-1.63-5.911-4.945
			c0-4.524,5.591-4.903,6.697-4.93c3.757,0.093,6.575,1.77,7.951,4.727c0.326,0.698,1.041,1.159,1.798,1.159
			c0.129,0,0.26-0.011,0.383-0.038l3.264-0.727c0.537-0.11,1.031-0.482,1.294-0.959c0.22-0.376,0.264-0.788,0.136-1.152
			c-2.005-5.828-7.057-8.916-14.741-8.916c-6.925,0.02-14.334,3.11-14.334,11.736c0,5.893,3.697,9.631,11.001,11.124l5.849,1.114
			c3.213,0.62,6.5,1.717,6.5,5.175c0,5.126-5.946,5.64-7.738,5.676c-3.733-0.084-8.524-1.624-9.704-5.696
			c-0.218-0.847-1.265-1.439-2.21-1.246l-3.397,0.706c-0.53,0.106-0.994,0.442-1.272,0.898c-0.227,0.386-0.302,0.802-0.182,1.183
			c1.759,6.332,7.854,10.155,16.308,10.216h0.194c7.547,0,15.618-3.238,15.618-12.335
			C550.831,190.969,549.18,187.659,546.289,185.588z"/>
	</g>
	<g>
		<path fill-rule="evenodd" clip-rule="evenodd" fill="#010101" d="M390.936,92.022v-8.675c0.008-1.316,0.996-2.205,2.2-2.205
			h38.793c1.237,0,2.228,0.908,2.228,2.192v7.439c-0.013,1.248-1.06,2.877-2.921,5.462l-20.088,28.755
			c7.455-0.175,15.356,0.94,22.125,4.756c1.52,0.861,1.927,2.136,2.056,3.386v9.253c0,1.283-1.395,2.753-2.861,1.985
			c-11.944-6.271-27.772-6.955-40.986,0.076c-1.341,0.722-2.761-0.73-2.761-2.008v-8.797c0-1.407,0.028-3.818,1.454-5.968
			L413.45,94.21l-20.264-0.009C391.933,94.201,390.947,93.317,390.936,92.022"/>
		<path fill-rule="evenodd" clip-rule="evenodd" fill="#010101" d="M249.452,146.195h-11.809c-1.12-0.066-2.012-0.915-2.102-2.003
			l0.012-60.698c0-1.214,1.013-2.183,2.265-2.183l10.995-0.009c1.147,0.067,2.064,0.931,2.149,2.041v7.932h0.213
			c2.867-7.671,8.265-11.243,15.539-11.243c7.383,0,12.004,3.572,15.301,11.243c2.874-7.671,9.373-11.243,16.315-11.243
			c4.95,0,10.342,2.041,13.647,6.635c3.746,5.112,2.98,12.52,2.98,19.038l-0.005,38.303c0,1.217-1.018,2.188-2.279,2.188h-11.785
			c-1.185-0.066-2.122-1.019-2.122-2.173v-32.187c0-2.553,0.22-8.943-0.334-11.37c-0.879-4.09-3.522-5.23-6.935-5.23
			c-2.859,0-5.839,1.915-7.055,4.969c-1.208,3.075-1.096,8.182-1.096,11.631v32.172c0,1.217-1.023,2.188-2.275,2.188h-11.793
			c-1.179-0.066-2.116-1.019-2.116-2.173l-0.01-32.187c0-6.774,1.106-16.729-7.271-16.729c-8.483,0-8.146,9.704-8.146,16.729
			l-0.003,32.172C251.732,145.224,250.708,146.195,249.452,146.195"/>
		<path fill-rule="evenodd" clip-rule="evenodd" fill="#010101" d="M467.555,80.032c17.517,0,26.999,15.074,26.999,34.226
			c0,18.531-10.479,33.218-26.999,33.218c-17.186,0-26.55-15.079-26.55-33.855C441.005,94.719,450.476,80.032,467.555,80.032
			 M467.659,92.421c-8.695,0-9.252,11.874-9.252,19.29c0,7.406-0.11,23.242,9.148,23.242c9.149,0,9.593-12.772,9.593-20.564
			c0-5.107-0.225-11.234-1.765-16.093C474.058,94.077,471.41,92.421,467.659,92.421z"/>
		<path fill-rule="evenodd" clip-rule="evenodd" fill="#010101" d="M517.254,146.195h-11.747c-1.195-0.066-2.129-1.019-2.129-2.173
			l-0.015-60.735c0.099-1.108,1.082-1.976,2.267-1.976l10.953-0.009c1.03,0.058,1.871,0.76,2.095,1.701v9.294h0.218
			c3.3-8.306,7.939-12.264,16.084-12.264c5.289,0,10.463,1.912,13.768,7.147c3.084,4.855,3.084,13.024,3.084,18.905v38.198
			c-0.128,1.08-1.097,1.913-2.252,1.913h-11.831c-1.104-0.066-1.985-0.873-2.111-1.913v-32.956c0-6.645,0.772-16.354-7.379-16.354
			c-2.868,0-5.498,1.92-6.832,4.857c-1.654,3.697-1.872,7.408-1.872,11.497v32.681C519.536,145.224,518.517,146.195,517.254,146.195
			"/>
		<path fill-rule="evenodd" clip-rule="evenodd" fill="#010101" d="M360.022,117.205c0,4.609,0.109,8.452-2.214,12.545
			c-1.87,3.335-4.854,5.381-8.175,5.381c-4.52,0-7.17-3.456-7.17-8.58c0-10.076,9.021-11.904,17.559-11.904V117.205 M371.92,146.044
			c-0.789,0.701-1.907,0.749-2.792,0.275c-3.917-3.26-4.626-4.774-6.759-7.88c-6.485,6.613-11.066,8.595-19.46,8.595
			c-9.937,0-17.66-6.144-17.66-18.435c0-9.597,5.189-16.133,12.575-19.329c6.401-2.816,15.352-3.329,22.198-4.103v-1.532
			c0-2.816,0.217-6.149-1.436-8.577c-1.432-2.176-4.192-3.073-6.625-3.073c-4.5,0-8.511,2.319-9.486,7.104
			c-0.191,1.066-0.986,2.122-2.046,2.176l-11.442-1.246c-0.965-0.213-2.039-0.989-1.761-2.465
			c2.636-13.913,15.166-18.112,26.393-18.112c5.729,0,13.246,1.533,17.777,5.885c5.732,5.377,5.177,12.544,5.177,20.357v18.425
			c0,5.545,2.312,7.978,4.467,10.969c0.746,1.072,0.914,2.345-0.046,3.139c-2.408,2.02-6.695,5.755-9.044,7.854L371.92,146.044z"/>
		<path fill-rule="evenodd" clip-rule="evenodd" fill="#010101" d="M205.319,117.205c0,4.609,0.113,8.452-2.208,12.545
			c-1.868,3.335-4.864,5.381-8.167,5.381c-4.528,0-7.181-3.456-7.181-8.58c0-10.076,9.013-11.904,17.556-11.904V117.205
			 M217.212,146.044c-0.773,0.701-1.905,0.749-2.782,0.275c-3.919-3.26-4.623-4.774-6.77-7.88
			c-6.472,6.613-11.064,8.595-19.449,8.595c-9.939,0-17.671-6.144-17.671-18.435c0-9.597,5.198-16.133,12.592-19.329
			c6.408-2.816,15.345-3.329,22.188-4.103v-1.532c0-2.816,0.221-6.149-1.439-8.577c-1.423-2.176-4.193-3.073-6.617-3.073
			c-4.495,0-8.505,2.319-9.49,7.104c-0.195,1.066-0.975,2.122-2.036,2.176l-11.439-1.246c-0.972-0.213-2.045-0.989-1.773-2.465
			c2.63-13.913,15.158-18.112,26.393-18.112c5.739,0,13.255,1.533,17.776,5.885c5.735,5.377,5.186,12.544,5.186,20.357v18.425
			c0,5.545,2.299,7.978,4.449,10.969c0.755,1.072,0.928,2.345-0.034,3.139c-2.411,2.02-6.697,5.755-9.05,7.854L217.212,146.044z"/>
	</g>
</g>
</svg>
